<?xml version="1.0" encoding="UTF-8"?>
<svg id="Capa_2" data-name="Capa 2" xmlns="http://www.w3.org/2000/svg" width="893.93" height="204.63" viewBox="0 0 893.93 204.63">
  <defs>
    <style>
      .cls-1 {
        letter-spacing: .29em;
      }

      .cls-2, .cls-3 {
        fill: #4caf50;
      }

      .cls-3 {
        font-family: Exo2-Black, 'Exo 2';
        font-size: 80px;
        font-variation-settings: 'wght' 900;
        font-weight: 800;
      }

      .cls-4 {
        letter-spacing: .3em;
      }
    </style>
  </defs>
  <g id="Capa_1-2" data-name="Capa 1">
    <g>
      <polygon class="cls-2" points="92.79 50.74 92.79 47.47 32.25 47.47 32.25 35.02 99.62 35.02 100.85 32.19 100.85 2.66 .01 2.66 .01 104.75 32.25 104.75 32.25 77.32 81.24 77.32 92.79 50.74"/>
      <path class="cls-2" d="M786.49,69.73v34.86h-32.24V2.51h32.24V37.37h48.42V2.51h32.3V104.59h-32.3v-34.86h-48.42Z"/>
      <polygon class="cls-2" points="391.34 23.9 372.58 53.55 349.08 16.35 299.98 7.59 299.98 104.59 332.22 104.59 332.22 50.13 364.52 104.59 380.64 104.59 412.94 50.13 412.94 104.59 445.17 104.59 445.17 33.51 391.34 23.9"/>
      <polygon class="cls-2" points="647.61 28.79 647.61 2.66 558.17 2.66 575.49 40.02 550.83 40.02 550.83 104.75 647.61 104.75 647.61 78.54 583.07 78.54 583.07 65.48 647.61 65.48 647.61 41.85 583.07 41.85 583.07 28.79 647.61 28.79"/>
      <polygon class="cls-2" points="552.66 2.66 567.66 35.02 514.33 35.02 514.33 104.75 482.1 104.75 482.1 35.02 443.77 28.18 299.98 2.51 552.66 2.66"/>
      <text class="cls-3" transform="translate(287.68 182.63) scale(1.04 1)"><tspan class="cls-4" x="0" y="0">ROB</tspan><tspan class="cls-1" x="235.44" y="0">O</tspan><tspan class="cls-4" x="314.88" y="0">TICS</tspan></text>
      <path class="cls-2" d="M297.63,62.06c3.32-6.23,4.98-13.22,4.98-20.89,.25-21.12-14.21-38.81-31.25-38.59h-79.67V68.86l15.56,35.8h16.68v-24.91h28.79l15.57,24.91h34.33l-18.03-28.64c5.41-3.11,9.78-7.82,13.04-13.98Zm-29.41-14.74c-1.35,1.67-3.01,2.51-4.98,2.51h-39.31v-17.39h39.31c3.94,0,7.08,3.87,7.08,8.74,0,2.35-.68,4.41-2.09,6.15Z"/>
      <path class="cls-2" d="M119.14,2.66h38.33l44.36,102.09h-36.3l-6.52-17.47h-41.41l-6.52,17.47h-36.3L119.14,2.66Zm7.81,59.7h22.7l-11.32-30.16-11.38,30.16Z"/>
      <path class="cls-2" d="M757.26,62.29c-2.03,34.48-26.52,44.81-56.29,44.81-31.01-.08-56.6-11.17-56.48-49.83v-7.44c-.12-38.59,25.47-49.68,56.48-49.83,29.78,.08,54.26,10.41,56.29,44.81h-33.04c-3.01-10.03-12.18-12.38-23.26-12.38-13.17,.23-24.36,3.11-24.18,19.9v2.51c-.18,16.63,11.01,19.67,24.18,19.9,11.07,0,20.3-2.43,23.26-12.46h33.04Z"/>
      <rect class="cls-2" x=".01" y="125.56" width="263.92" height="10" rx="5" ry="5"/>
      <rect class="cls-2" x=".01" y="172.68" width="263.92" height="10" rx="5" ry="5"/>
      <rect class="cls-2" x="0" y="149.02" width="263.92" height="10" rx="5" ry="5"/>
      <ellipse class="cls-2" cx="9.89" cy="130.81" rx=".06" ry=".66"/>
    </g>
  </g>
</svg>